<svg xmlns="http://www.w3.org/2000/svg" version="1.1" xmlns:xlink="http://www.w3.org/1999/xlink" xmlns:svgjs="http://svgjs.dev/svgjs" width="2000" height="1500" viewBox="0 0 2000 1500"><rect width="2000" height="1500" fill="#5a1812"></rect><g transform="matrix(0.75,0,0,0.75,250,281.25)"><svg viewBox="0 0 512 320" data-background-color="#5a1812" preserveAspectRatio="xMidYMid meet" height="1250" width="2000" xmlns="http://www.w3.org/2000/svg" xmlns:xlink="http://www.w3.org/1999/xlink"><g id="tight-bounds" transform="matrix(1,0,0,1,0,0)"><svg viewBox="0 0 512 320" height="320" width="512"><g><svg></svg></g><g><svg viewBox="0 0 512 320" height="320" width="512"><g><path d="M96 160c0-88.366 71.634-160 160-160 88.366 0 160 71.634 160 160 0 88.366-71.634 160-160 160-88.366 0-160-71.634-160-160zM256 312.103c84.004 0 152.103-68.099 152.103-152.103 0-84.004-68.099-152.103-152.103-152.103-84.004 0-152.103 68.099-152.103 152.103 0 84.004 68.099 152.103 152.103 152.103z" fill="#e6b17e" fill-rule="nonzero" stroke="none" stroke-width="1" stroke-linecap="butt" stroke-linejoin="miter" stroke-miterlimit="10" stroke-dasharray="" stroke-dashoffset="0" font-family="none" font-weight="none" font-size="none" text-anchor="none" style="mix-blend-mode: normal" data-fill-palette-color="tertiary"></path></g><g transform="matrix(1,0,0,1,128,99.66217593028324)"><svg viewBox="0 0 255.99999999999997 120.67564813943353" height="120.67564813943353" width="255.99999999999997"><g><svg viewBox="0 0 255.99999999999997 120.67564813943353" height="120.67564813943353" width="255.99999999999997"><g><svg viewBox="0 0 255.99999999999997 120.67564813943353" height="120.67564813943353" width="255.99999999999997"><g transform="matrix(1,0,0,1,0,76.89351306318082)"><svg viewBox="0 0 255.99999999999997 43.782135076252715" height="43.782135076252715" width="255.99999999999997"><g id="textblocktransform"><svg viewBox="0 0 255.99999999999997 43.782135076252715" height="43.782135076252715" width="255.99999999999997" id="textblock"><g><svg viewBox="0 0 255.99999999999997 43.782135076252715" height="43.782135076252715" width="255.99999999999997"><g transform="matrix(1,0,0,1,0,0)"><svg width="255.99999999999997" viewBox="2.6 -34.6 275.38 47.1" height="43.782135076252715" data-palette-color="#e6b17e"><path d="M33.5 2.35L33.5 2.35Q35.45 2.45 36.4 3.55 37.35 4.65 37.35 7.25L37.35 7.25Q37.35 10.25 35.75 11.38 34.15 12.5 31.25 12.5L31.25 12.5Q28.35 12.5 25.78 11.68 23.2 10.85 21.78 9.9 20.35 8.95 19.25 7.8L19.25 7.8Q18.5 7.05 17.88 5.88 17.25 4.7 16.8 3.15 16.35 1.6 16.25-0.05L16.25-0.05Q10.15-1.2 6.38-5.6 2.6-10 2.6-16.85L2.6-16.85Q2.6-25 7.53-29.75 12.45-34.5 20.2-34.5L20.2-34.5Q27.9-34.5 32.77-29.75 37.65-25 37.65-16.85L37.65-16.85Q37.65-10.3 34.23-5.98 30.8-1.65 25.15-0.25L25.15-0.25Q27.2 2 33.5 2.35ZM24.8-12.15Q25.3-14.3 25.3-16.88 25.3-19.45 24.78-21.73 24.25-24 23.05-25.58 21.85-27.15 20.2-27.15L20.2-27.15Q18.55-27.15 17.32-25.55 16.1-23.95 15.53-21.68 14.95-19.4 14.95-16.85L14.95-16.85Q14.95-15.4 15.15-14 15.35-12.6 15.78-11.33 16.2-10.05 16.8-9.1 17.4-8.15 18.28-7.58 19.15-7 20.2-7L20.2-7Q21.9-7 23.1-8.5 24.3-10 24.8-12.15ZM53.45-19.7L53.5-10.55Q53.5-7.7 55.7-7.7L55.7-7.7Q56.45-7.7 57.02-8.18 57.6-8.65 57.9-9.5 58.2-10.35 58.2-11.45L58.2-11.45 58.2-18.15Q58.2-19.85 58.8-21.13 59.4-22.4 60.55-23.1 61.7-23.8 63.25-23.8L63.25-23.8Q65.95-23.8 67.45-22.63 68.95-21.45 68.95-18.3L68.95-18.3 68.95-5.3Q68.95-2.25 67.7-1.1 66.45 0.05 63.3 0.05L63.3 0.05Q61.95 0.05 61-0.23 60.05-0.5 59.47-1.05 58.9-1.6 58.6-2.5L58.6-2.5Q56.55-1.15 54.27-0.6 52-0.05 49.2-0.05L49.2-0.05Q45.65-0.05 44.1-2.83 42.55-5.6 42.55-11.95L42.55-11.95Q42.55-15.1 42.7-17.07 42.85-19.05 43.17-20.48 43.5-21.9 44.17-22.6 44.85-23.3 45.77-23.6 46.7-23.9 48.2-23.9L48.2-23.9Q51-23.9 52.22-22.85 53.45-21.8 53.45-19.7L53.45-19.7ZM73.65-30.8L73.65-30.8Q73.65-32.45 75.07-33.52 76.5-34.6 79.09-34.6L79.09-34.6Q84.55-34.6 84.55-30.8L84.55-30.8Q84.55-28.7 83.17-27.85 81.8-27 79.09-27L79.09-27Q76.75-27 75.2-27.9 73.65-28.8 73.65-30.8ZM84.5-18.35L84.5-5.35Q84.5-2.35 83.25-1.18 82 0 78.84 0L78.84 0Q75.9 0 74.82-1.38 73.75-2.75 73.75-5.9L73.75-5.9 73.75-18.2Q73.75-20.75 75.12-22.3 76.5-23.85 78.8-23.85L78.8-23.85Q81.5-23.85 83-22.68 84.5-21.5 84.5-18.35L84.5-18.35ZM103.84-18.7L103.84-18.7Q103.84-19.85 102.54-19.85L102.54-19.85Q101.59-19.85 100.84-18.8 100.09-17.75 99.69-16.18 99.29-14.6 99.29-12.9L99.29-12.9Q99.29-10.4 100.82-8.85 102.34-7.3 104.94-7.3L104.94-7.3Q107.49-7.3 109.34-7.9L109.34-7.9Q110.09-8.1 111.17-8.65 112.24-9.2 112.69-9.2L112.69-9.2Q113.39-9.2 113.84-8.95 114.29-8.7 114.47-8.35 114.64-8 114.64-7.6L114.64-7.6Q114.64-6.9 114.17-5.9 113.69-4.9 112.69-3.8 111.69-2.7 110.37-1.78 109.04-0.85 107.09-0.25 105.14 0.35 102.99 0.35L102.99 0.35Q96.79 0.35 92.79-2.98 88.79-6.3 88.79-12.1L88.79-12.1Q88.79-15.8 90.62-18.57 92.44-21.35 95.64-22.78 98.84-24.2 102.99-24.2L102.99-24.2Q106.94-24.2 109.52-23.28 112.09-22.35 113.19-20.8 114.29-19.25 114.29-17.1L114.29-17.1Q114.29-16.15 113.92-15.15 113.54-14.15 112.77-13.15 111.99-12.15 110.49-11.53 108.99-10.9 106.99-10.9L106.99-10.9Q106.09-10.9 105.52-11 104.94-11.1 104.32-11.43 103.69-11.75 103.39-12.5 103.09-13.25 103.09-14.4L103.09-14.4Q103.09-15.4 103.47-16.82 103.84-18.25 103.84-18.7ZM131.79-7.1L131.79-7.1 129.99-7.1Q129.99-4.5 128.49-2.25 126.99 0 124.49 0L124.49 0Q121.69 0 120.37-1.58 119.04-3.15 119.04-7.15L119.04-7.15 119.04-27.7Q119.04-29.85 119.74-31.18 120.44-32.5 121.57-33.05 122.69-33.6 124.49-33.7L124.49-33.7Q127.59-33.7 128.64-31.63 129.69-29.55 129.69-24.45L129.69-24.45Q129.69-20.5 129.24-17.5L129.24-17.5Q129.59-16.4 131.49-16.4L131.49-16.4Q132.69-16.4 133.12-16.93 133.54-17.45 133.54-19.05L133.54-19.05Q133.54-21.4 134.77-22.45 135.99-23.5 138.94-23.5L138.94-23.5Q142.04-23.5 143.12-22.38 144.19-21.25 144.19-18.3L144.19-18.3Q144.19-15.2 142.34-13.5 140.49-11.8 138.19-11.8L138.19-11.8Q140.54-11.8 142.37-10.38 144.19-8.95 144.19-6.1L144.19-6.1Q144.19-2.3 143.17-1.15 142.14 0 138.94 0L138.94 0Q135.99 0 134.77-1.07 133.54-2.15 133.54-4.45L133.54-4.45Q133.54-5.6 133.34-6.18 133.14-6.75 132.81-6.93 132.49-7.1 131.79-7.1ZM168.09-24.6L168.09-24.6Q168.09-26.7 166.46-27.48 164.84-28.25 161.04-28.25L161.04-28.25 161.04-20.6Q163.39-20.6 164.86-20.95 166.34-21.3 167.21-22.18 168.09-23.05 168.09-24.6ZM168.74-11.25L168.74-11.25Q168.74-12.9 167.89-13.8 167.04-14.7 165.44-15.08 163.84-15.45 161.04-15.45L161.04-15.45 161.04-6.8Q164.94-6.8 166.84-7.78 168.74-8.75 168.74-11.25ZM174.89-17.8L174.89-17.8Q179.54-15.05 179.54-10.45L179.54-10.45Q179.54-8.45 178.76-6.63 177.99-4.8 176.46-3.3 174.94-1.8 172.44-0.93 169.94-0.05 166.79-0.05L166.79-0.05 155.19-0.05Q152.14-0.05 150.81-1.6 149.49-3.15 149.49-7.15L149.49-7.15 149.49-28.3Q149.49-30 150.09-31.3 150.69-32.6 152.01-33.4 153.34-34.2 155.19-34.2L155.19-34.2 166.64-34.2Q171.64-34.15 174.96-31.48 178.29-28.8 178.29-24.6L178.29-24.6Q178.29-23.25 178.06-22.23 177.84-21.2 177.39-20.4 176.94-19.6 176.34-19 175.74-18.4 174.89-17.8ZM184.64-30.8L184.64-30.8Q184.64-32.45 186.06-33.52 187.49-34.6 190.09-34.6L190.09-34.6Q195.54-34.6 195.54-30.8L195.54-30.8Q195.54-28.7 194.16-27.85 192.79-27 190.09-27L190.09-27Q187.74-27 186.19-27.9 184.64-28.8 184.64-30.8ZM195.49-18.35L195.49-5.35Q195.49-2.35 194.24-1.18 192.99 0 189.84 0L189.84 0Q186.89 0 185.81-1.38 184.74-2.75 184.74-5.9L184.74-5.9 184.74-18.2Q184.74-20.75 186.11-22.3 187.49-23.85 189.79-23.85L189.79-23.85Q192.49-23.85 193.99-22.68 195.49-21.5 195.49-18.35L195.49-18.35ZM202.53-10.7L202.53-10.7 202.53-16.6Q201.28-16.65 200.53-17.03 199.78-17.4 199.46-18 199.13-18.6 199.13-19.5L199.13-19.5Q199.13-22.35 202.58-22.6L202.58-22.6 202.58-27.25Q202.58-29.15 205.33-30.68 208.08-32.2 210.78-32.2L210.78-32.2Q212.43-32.2 212.93-31.25 213.43-30.3 213.43-28.4L213.43-28.4 213.48-22.65 214.83-22.65Q217.58-22.65 218.61-21.93 219.63-21.2 219.63-19.3L219.63-19.3Q219.63-18.5 219.33-17.95 219.03-17.4 218.36-17.1 217.68-16.8 216.73-16.68 215.78-16.55 214.38-16.55L214.38-16.55 213.48-16.55 213.48-11.05Q213.48-10.25 213.56-9.73 213.63-9.2 213.78-8.9 213.93-8.6 214.21-8.5 214.48-8.4 214.88-8.4L214.88-8.4Q215.48-8.4 215.88-8.83 216.28-9.25 216.51-9.78 216.73-10.3 217.11-10.73 217.48-11.15 217.98-11.15L217.98-11.15Q219.13-11.15 219.76-10.6 220.38-10.05 220.38-9.25L220.38-9.25Q220.38-7.9 219.86-6.35 219.33-4.8 218.33-3.35 217.33-1.9 215.56-0.95 213.78 0 211.58 0L211.58 0Q206.63 0 204.58-2.5 202.53-5 202.53-10.7ZM238.08 0.3L238.08 0.3Q231.98 0.3 228.01-2.85 224.03-6 224.03-11.45L224.03-11.45Q224.03-17.35 227.96-20.78 231.88-24.2 238.08-24.2L238.08-24.2Q243.93-24.2 246.66-22.13 249.38-20.05 249.38-16.45L249.38-16.45Q249.38-15.75 249.21-15.1 249.03-14.45 248.66-13.83 248.28-13.2 247.66-12.68 247.03-12.15 246.23-11.73 245.43-11.3 244.33-11.08 243.23-10.85 241.98-10.85L241.98-10.85 234.93-10.8Q235.43-9.2 236.73-8.28 238.03-7.35 240.03-7.35L240.03-7.35Q242.18-7.35 244.43-7.9L244.43-7.9Q245.38-8.15 246.51-8.7 247.63-9.25 248.13-9.25L248.13-9.25Q248.98-9.25 249.46-8.75 249.93-8.25 249.93-7.5L249.93-7.5Q249.93-6.6 249.13-5.33 248.33-4.05 246.91-2.78 245.48-1.5 243.13-0.6 240.78 0.3 238.08 0.3ZM234.68-14L234.68-14Q238.13-14.05 238.43-14.05L238.43-14.05Q239.18-14.05 239.53-14.95L239.53-14.95Q239.78-15.6 239.78-16.75L239.78-16.75Q239.78-19.9 237.88-19.9L237.88-19.9Q237.18-19.9 236.51-19.15 235.83-18.4 235.33-17.03 234.83-15.65 234.68-14ZM265.83-24.2L265.83-24.2Q270.48-24.2 273.58-22.3 276.68-20.4 276.68-18.15L276.68-18.15Q276.68-17.5 276.13-16.95 275.58-16.4 274.73-16.4L274.73-16.4Q273.98-16.4 273.08-16.93 272.18-17.45 271.38-18.05 270.58-18.65 269.28-19.15 267.98-19.65 266.53-19.65L266.53-19.65Q264.58-19.65 264.58-18.45L264.58-18.45Q264.58-17.6 265.58-17.1 266.58-16.6 268.5-16.05 270.43-15.5 271.43-15L271.43-15Q275.18-13.55 276.58-11.88 277.98-10.2 277.98-7.45L277.98-7.45Q277.98-6.1 277.23-4.78 276.48-3.45 274.98-2.27 273.48-1.1 270.9-0.38 268.33 0.35 265.03 0.35L265.03 0.35Q258.58 0.35 255.38-2.6L255.38-2.6Q253.83-4.05 253.83-5.6L253.83-5.6Q253.83-6.55 254.45-7.1 255.08-7.65 256.23-7.65L256.23-7.65Q257.38-7.65 259.73-6.53 262.08-5.4 264.08-5.4L264.08-5.4Q266.83-5.4 266.83-6.75L266.83-6.75Q266.83-7.45 265.38-7.88 263.93-8.3 261.58-8.9 259.23-9.5 257.83-10.4L257.83-10.4Q255.63-11.35 254.75-12.78 253.88-14.2 253.88-16.25L253.88-16.25Q253.88-19.75 257.2-21.98 260.53-24.2 265.83-24.2Z" opacity="1" transform="matrix(1,0,0,1,0,0)" fill="#e6b17e" class="wordmark-text-0" data-fill-palette-color="primary" id="text-0"></path></svg></g></svg></g></svg></g></svg></g><g transform="matrix(1,0,0,1,71.42603851851851,0)"><svg viewBox="0 0 113.14792296296295 66.55760174291939" height="66.55760174291939" width="113.14792296296295"><g><svg xmlns="http://www.w3.org/2000/svg" xmlns:xlink="http://www.w3.org/1999/xlink" version="1.1" x="0" y="0" viewBox="15 120 510 300" style="enable-background:new 0 0 540 540;" xml:space="preserve" height="66.55760174291939" width="113.14792296296295" class="icon-icon-0" data-fill-palette-color="accent" id="icon-0"><g fill="#e6b17e" data-fill-palette-color="accent"><g fill="#e6b17e" data-fill-palette-color="accent"><g fill="#e6b17e" data-fill-palette-color="accent"><path d="M505 230h10c5.522 0 10-4.478 10-10v-30c0-38.599-31.401-70-70-70H85c-38.599 0-70 31.401-70 70v30c0 5.522 4.478 10 10 10h10v80H25c-5.522 0-10 4.478-10 10v30c0 38.599 31.401 70 70 70h370c38.599 0 70-31.401 70-70v-30c0-5.522-4.478-10-10-10h-10V230zM485 251.444c-14.782 1.365-23.754 5.666-31.827 9.541-8.41 4.037-15.745 7.557-30.237 7.974L450.207 230H485V251.444zM114.207 230h101.586C209.734 238.656 171 293.991 165 302.563L114.207 230zM299.793 230l17.519 25.027C299.978 260.718 294.393 269 269.99 269c-24.38 0-29.993-8.276-47.307-13.967L240.207 230H299.793zM210.5 272.437C229.578 276.426 237.183 289 269.99 289c32.891 0 40.407-12.583 59.507-16.566L355.793 310H184.206L210.5 272.437zM324.207 230h101.586L375 302.563C368.995 293.983 330.159 238.504 324.207 230zM35 190c0-27.57 22.43-50 50-50h35v30c0 5.522 4.478 10 10 10s10-4.478 10-10v-30h50v30c0 5.522 4.478 10 10 10s10-4.478 10-10v-30h50v30c0 5.522 4.478 10 10 10s10-4.478 10-10v-30h50v30c0 5.522 4.478 10 10 10s10-4.478 10-10v-30h50v30c0 5.522 4.478 10 10 10s10-4.478 10-10v-30h35c27.57 0 50 22.43 50 50v20c-109.223 0-371.174 0-470 0V190zM89.794 230l27.271 38.958c-14.492-0.417-21.827-3.937-30.237-7.974-8.073-3.875-17.045-8.175-31.827-9.541V230H89.794zM55 271.55c10.046 1.182 16.254 4.145 23.173 7.466C87.923 283.695 98.975 289 120 289c3.798 0 7.352-0.17 10.737-0.509L145.794 310H55V271.55zM505 350c0 27.57-22.43 50-50 50H85c-27.57 0-50-22.43-50-50v-20c25.913 0 447.698 0 470 0V350zM394.207 310l15.056-21.509C412.648 288.83 416.202 289 420 289c21.025 0 32.077-5.305 41.827-9.984 6.919-3.321 13.126-6.284 23.173-7.466V310H394.207z" fill="#e6b17e" data-fill-palette-color="accent"></path><circle cx="130" cy="365" r="10" fill="#e6b17e" data-fill-palette-color="accent"></circle><circle cx="200" cy="365" r="10" fill="#e6b17e" data-fill-palette-color="accent"></circle><circle cx="270" cy="365" r="10" fill="#e6b17e" data-fill-palette-color="accent"></circle><circle cx="340" cy="365" r="10" fill="#e6b17e" data-fill-palette-color="accent"></circle><circle cx="410" cy="365" r="10" fill="#e6b17e" data-fill-palette-color="accent"></circle></g></g></g></svg></g></svg></g><g></g></svg></g></svg></g></svg></g></svg></g><defs></defs></svg><rect width="512" height="320" fill="none" stroke="none" visibility="hidden"></rect></g></svg></g></svg>